# xmcd
#
# Track frame offsets:
#	150
#	799
#	15902
#	30875
#	36770
#	40671
#	61652
#	78666
#	89486
#	107727
#	112248
#	129670
#	147155
#	155613
#	158408
#	171806
#	186552
#	195365
#	211529
#
# Disc length: 2923 seconds
#
# Revision: 0
# Processed by: cddbd v1.5.1PL2 Copyright (c) Steve Scherf et al.
# Submitted via: dBpowerAMP V4.0
#
DISCID=e00b6913
DTITLE=Don Blas - The Underworld
DYEAR=2003
DGENRE=Hip-Hop
TTITLE0=W.M.O.B
TTITLE1=Get Yo Strap
TTITLE2=Lady Lux 1 (break)
TTITLE3=Word From Our Sponsor (break)
TTITLE4=Steps
TTITLE5=Cook Dat
TTITLE6=Cliney Remix
TTITLE7=1, 2, 3
TTITLE8=Lady Lux 2 (break)
TTITLE9=Let Her Cry
TTITLE10=How We MOB
TTITLE11=Fly Show (break)
TTITLE12=Breakin' News (break)
TTITLE13=Freestyle Friday
TTITLE14=Interrogation
TTITLE15=Leave A Message (break)
TTITLE16=Family
TTITLE17=MOB...We Out!!
TTITLE18=extra
EXTD=
EXTT0=
EXTT1=
EXTT2=
EXTT3=
EXTT4=
EXTT5=
EXTT6=
EXTT7=
EXTT8=
EXTT9=
EXTT10=
EXTT11=
EXTT12=
EXTT13=
EXTT14=
EXTT15=
EXTT16=
EXTT17=
EXTT18=
PLAYORDER=
